# xmcd
# Copyright (C) 1995-1998 Ti Kan
#
# Track frame offsets:
#       182
#       22367
#       40760
#       64567
#       81287
#       94185
#       110732
#       127305
#       139007
#       153417
#
# Disc length: 2456 seconds
#
# Revision: 0
# Processed by: cddbd v1.5.2PL0 Copyright (c) Steve Scherf et al.
# Submitted via: CD-Import v1.0
#
DISCID=8d09960a
DTITLE=Cure - The Top
DYEAR=1984
DGENRE=
TTITLE0=Shake Dog Shake
TTITLE1=Birdmad Girl
TTITLE2=Wailing Wall
TTITLE3=Give Me It
TTITLE4=Dressing Up
TTITLE5=The Caterpillar
TTITLE6=Piggy In The Mirror
TTITLE7=The Empty World
TTITLE8=Bananafishbones
TTITLE9=The Top
EXTD=
EXTT0=
EXTT1=
EXTT2=
EXTT3=
EXTT4=
EXTT5=
EXTT6=
EXTT7=
EXTT8=
EXTT9=
PLAYORDER=
